<?xml version="1.0" encoding="UTF-8"?>
<svg id="Layer_2" data-name="Layer 2" xmlns="http://www.w3.org/2000/svg" viewBox="0 0 538.97 459.04">
  <defs>
    <style>
      .cls-1 {
        fill: #74d876;
      }

      .cls-1, .cls-2 {
        stroke-width: 0px;
      }

      .cls-2 {
        fill: #227cff;
      }
    </style>
  </defs>
  <g id="Layer_1-2">
    <g>
      <path class="cls-2" d="m352.4,15.53C288.36,2.42,180.79-22.61,107.55,45.23V13.9c0-6.78-5.5-12.27-12.27-12.27s-12.27,5.5-12.27,12.27v55.59L18.82,29.05c-5.73-3.61-13.31-1.89-16.92,3.84C-1.72,38.63,0,46.21,5.73,49.82l66.86,42.12c-29.65,59.78-30.29,143.66-26.26,200.8,4.3,57.59,33.96,110.78,82.45,141.98.12.07.23.15.35.22,19.42,12.32,42.1,18.5,65.09,19.22l151.25,4.74c36.59,1.15,73.19-5.48,106.43-20.8,1.9-.87,3.68-1.73,5.34-2.56,70.17-34.37,78.46-77.33,81.63-216.96,3.58-169.19-103.32-186.07-186.48-203.05Zm157.74,267.4c-2.05,11.76-4.71,21.69-7.16,29.56,0,0,0,.41-.41.82-1.54,8.59-19.64,77.64-156.51,75.29-8.29,0-16.16-.41-23.63-.41-25.27,0-47.77,0-67.92-1.13-73.65-2.76-112.73-16.57-132.47-86.85-2.35-7.88-4.3-16.16-5.93-25.16-3.89-25.27-5.52-57.59-5.52-99.02C110.58,13.89,259.72,26.99,259.72,26.99c0,0,61.07,4.71,148.22,27.21,86.75,22.4,125.82,98.92,102.19,228.73Z"/>
      <g>
        <path class="cls-1" d="m395.2,174.86c-27.61,0-49.97,30.9-49.97,69.04v.18c.01,6.55,7.54,10.3,12.88,6.51,10.49-7.44,23.14-11.78,36.74-11.78s26.79,4.53,37.42,12.27c5.32,3.87,12.91.13,12.95-6.46,0-.24,0-.48,0-.72,0-38.14-22.41-69.04-50.02-69.04Z"/>
        <path class="cls-1" d="m285.65,217.12c.39-.32.63-.47.87-.71.23-.16.47-.47.71-.71.55-.63.79-.87,1.03-1.18.24-.32.39-.55.55-.87.55-.87.79-1.18.95-1.58s.32-.71.39-1.03c.39-.87.55-1.42.71-1.97l.24-.63c.08-.32.08-.63.16-.95.16-.55.24-1.1.32-1.73.08-.63.08-1.1.16-1.66,0-.63.08-1.18,0-1.73,0-.55-.08-1.18-.08-1.74-.08-.55-.16-1.03-.24-1.58-.16-.63-.32-1.26-.47-1.81l-.39-1.5c-.24-.47-.47-.95-.71-1.5-.32-.63-.39-.95-.55-1.26-.24-.39-.55-.71-.79-1.1-.39-.63-.63-.87-.79-1.18-.32-.24-.47-.47-.71-.63-.63-.63-.87-.87-1.1-1.1-.24-.16-.47-.24-.71-.39-.47-.32-.79-.55-1.18-.71l-.71-.39-66.01-27.76c-1.89-.79-3.86-1.18-5.84-1.18-2.29,0-4.5.47-6.63,1.5-3.86,1.89-6.78,5.44-7.89,9.62-2.05,7.73,1.73,15.38,8.52,18.22l39.91,16.8-39.28,20.51c-6.54,3.47-9.62,11.04-7.33,17.98,1.42,4.18,4.57,7.57,8.6,9.23,4.1,1.66,8.67,1.42,12.62-.63l64.67-33.91c.39-.24.71-.47,1.03-.71Z"/>
        <path class="cls-1" d="m342.29,297.93h-52.18c-5.83,0-10.59,4.75-10.59,10.59s4.75,10.59,10.59,10.59h52.18c5.83,0,10.59-4.75,10.59-10.59s-4.75-10.59-10.59-10.59Z"/>
      </g>
    </g>
  </g>
</svg>